HIERARCHY
ROOT Hips
{
	OFFSET 0.00000 0.00000 0.00000
	CHANNELS 6 Xposition Yposition Zposition Yrotation Zrotation Xrotation 
	JOINT Lumbar
	{
		OFFSET 0 0 0
		CHANNELS 3 Zrotation Xrotation Yrotation
		JOINT Neck
		{
			OFFSET 0.00 0.2701 0.00
			CHANNELS 3 Zrotation Xrotation Yrotation
			End Site
			{
				OFFSET 0.00 0.1379 0.00
			}
		}
		JOINT RightShoulder
		{
			OFFSET 0.0119 0.2289 0.1181
			CHANNELS 3 Zrotation Xrotation Yrotation
			JOINT RightElbow
			{
				OFFSET 0.00 -0.1475 0.00
				CHANNELS 2 Zrotation Yrotation
				JOINT RightWrist
				{
					OFFSET 0.00 -0.1605 0.00
					CHANNELS 2 Zrotation Xrotation
					End Site
					{
						OFFSET 0.0040 -0.1068 0.0006
					}
				}
			}
		}
		JOINT LeftShoulder
		{
			OFFSET 0.0119 0.2289 -0.1181
			CHANNELS 3 Zrotation Xrotation Yrotation
			JOINT LeftElbow
			{
				OFFSET 0.00 -0.1475 0.00
				CHANNELS 2 Zrotation Yrotation
				JOINT LeftWrist
				{
					OFFSET 0.00 -0.1605 0.00
					CHANNELS 2 Zrotation Xrotation
					End Site
					{
						OFFSET 0.0040 -0.1068 -0.0006
					}
				}
			}
		}
	}
	JOINT RightHip
	{
		OFFSET 0.0316 -0.0424 0.0458
		CHANNELS 3 Zrotation Xrotation Yrotation
		JOINT RightKnee
		{
			OFFSET 0.00 -0.2438 0.00
			CHANNELS 1 Zrotation
			JOINT RightAnkle
			{
				OFFSET 0.00 -0.2449 0.00
				CHANNELS 3 Zrotation Xrotation Yrotation
				End Site
				{
					OFFSET 0.1237 -0.0542 0.0051
				}
			}
		}
	}
	JOINT LeftHip
	{
		OFFSET 0.0316 -0.0424 -0.0458
		CHANNELS 3 Zrotation Xrotation Yrotation
		JOINT LeftKnee
		{
			OFFSET 0.00 -0.2438 0.00
			CHANNELS 1 Zrotation
			JOINT LeftAnkle
			{
				OFFSET 0.00 -0.2449 0.00
				CHANNELS 3 Zrotation Xrotation Yrotation
				End Site
				{
					OFFSET 0.1237 -0.0542 -0.0051
				}
			}
		}
	}
}
MOTION
Frames: 13
Frame Time: 0.02
0.0047 0.00043 0.00751 -186.63856 -36.21626 -3.17363 46.28841 2.34391 -6.97846 -11.69136 3.65992 -0.80861 111.4916 -31.39268 35.59093 111.30126 115.11802 -26.40626 -10.31651 -21.15439 29.48025 -21.12435 41.18019 -87.20513 3.05289 0.02386 43.87538 0.18505 -6.63654 -22.25344 -6.61196 -2.50467 -1.91189 44.39419 7.84109 1.28736 -27.25666 -6.74901 3.21392 2.32077
0.00434 0.00043 0.008 -186.91427 -36.12652 -3.24831 46.20982 2.34049 -6.99023 -11.82632 3.63119 -0.80864 111.40433 -31.31035 35.5927 111.29278 115.13008 -26.535 -10.27635 -22.07367 27.78464 -19.96078 39.10151 -87.11175 2.8403 -0.08249 43.74201 0.16672 -6.66481 -22.22178 -6.6188 -2.47182 -1.89307 44.19546 7.955 1.85005 -27.23879 -6.73567 3.17223 2.29686
0.00395 0.00043 0.00846 -187.1801 -35.93241 -3.32579 46.05149 2.33202 -6.97668 -12.01791 3.643 -0.80865 111.26931 -31.28889 35.58856 111.32161 115.07089 -26.63852 -10.20175 -23.10474 26.22183 -18.37099 37.5392 -86.7754 2.39906 -0.18353 43.48697 0.14064 -6.78185 -22.1829 -6.62766 -2.42401 -1.86637 43.87408 8.10665 2.52999 -27.21009 -6.71977 3.11613 2.26512
0.00356 0.00042 0.00893 -187.45278 -35.79938 -3.40387 45.94482 2.32623 -6.96995 -12.18595 3.64077 -0.80867 111.14872 -31.2432 35.57927 111.33741 114.92963 -26.69497 -10.12625 -24.09219 24.61987 -17.00146 35.80472 -86.55433 2.07276 -0.28322 43.30314 0.12035 -6.85456 -22.14845 -6.63565 -2.38342 -1.84357 43.62458 8.23393 3.12095 -27.18798 -6.70582 3.07126 2.2396
0.00319 0.00042 0.00941 -187.71728 -35.61172 -3.47459 45.7767 2.31911 -6.98177 -12.34615 3.62024 -0.80869 111.05741 -31.18222 35.60149 111.33608 115.24016 -26.98091 -10.11658 -25.04814 22.92964 -15.51374 33.8043 -86.29405 1.69818 -0.39411 43.05553 0.09116 -6.94214 -22.10928 -6.64346 -2.34117 -1.81947 43.31004 8.39154 3.86109 -27.15918 -6.68863 3.00696 2.20302
0.00279 0.00041 0.00986 -187.99501 -35.51066 -3.56081 45.71489 2.31337 -6.95002 -12.53525 3.64706 -0.80871 110.89576 -31.16845 35.55908 111.37924 114.63233 -26.80311 -9.96703 -26.09393 21.45548 -14.17383 32.48008 -86.08587 1.37524 -0.48641 42.90911 0.07828 -7.02037 -22.07812 -6.6521 -2.29888 -1.79622 43.09929 8.49542 4.3214 -27.1415 -6.67749 2.97919 2.18732
0.00232 0.00041 0.01024 -188.32107 -35.68971 -3.69272 45.98249 2.31364 -6.79664 -12.79444 3.79864 -0.80876 110.53327 -31.26209 35.31702 111.53922 111.15864 -25.18085 -9.39105 -27.39366 20.53227 -13.3408 32.91119 -85.80312 1.18817 -0.47295 43.08962 0.11399 -7.05371 -22.0713 -6.66278 -2.25888 -1.77664 43.22169 8.43623 3.95002 -27.15849 -6.68434 3.06059 2.23396
0.00183 0.00041 0.01058 -188.65875 -35.95629 -3.83938 46.35633 2.31525 -6.60183 -13.07972 3.99569 -0.80881 110.10489 -31.40228 35.01399 111.74211 106.82313 -23.12247 -8.68389 -28.77364 19.82458 -12.67375 34.00233 -85.61886 1.06911 -0.44865 43.37245 0.16596 -7.07451 -22.07267 -6.67418 -2.21955 -1.75827 43.44932 8.32261 3.29856 -27.18674 -6.69724 3.17837 2.30136
0.00135 0.00041 0.01093 -188.98501 -36.17263 -3.97699 46.67071 2.31557 -6.43087 -13.35038 4.16946 -0.80886 109.71876 -31.52691 34.75399 111.92358 103.11617 -21.37853 -8.06938 -30.09661 19.02579 -11.93426 34.7829 -85.58803 0.96333 -0.46922 43.59673 0.20943 -7.09947 -22.06996 -6.68511 -2.1807 -1.73972 43.61785 8.23744 2.79492 -27.20897 -6.70696 3.2764 2.35746
0.00085 0.00041 0.01129 -189.3375 -36.43007 -4.12482 47.03017 2.31859 -6.23749 -13.63523 4.35597 -0.80892 109.27948 -31.63155 34.43023 112.11492 98.42669 -19.15248 -7.31674 -31.51304 18.20052 -11.1643 35.62814 -84.76727 0.67552 -0.33198 43.8683 0.25757 -7.13351 -22.0685 -6.69675 -2.13801 -1.71934 43.83032 8.13795 2.20832 -27.23476 -6.71845 3.38757 2.4212
0.00038 0.00041 0.01164 -189.63745 -36.62335 -4.25455 47.32118 2.31637 -6.08169 -13.89532 4.52586 -0.80897 108.93527 -31.78619 34.22343 112.29482 95.55475 -17.81538 -6.81794 -32.74876 17.48269 -10.5064 36.48635 -85.54914 0.7704 -0.50713 44.06644 0.29964 -7.14511 -22.06647 -6.70702 -2.10369 -1.70315 43.97715 8.05483 1.72697 -27.25581 -6.72767 3.4801 2.47401
-2e-05 0.0004 0.01201 -189.79637 -36.62506 -4.33299 47.4052 2.29953 -6.03663 -14.08572 4.64152 -0.80901 108.87535 -32.08379 34.36714 112.4375 98.13157 -19.14387 -7.07956 -33.49665 16.98387 -10.0881 37.23768 -91.33965 2.04263 -1.6683 44.0451 0.32347 -7.09213 -22.06109 -6.71361 -2.09244 -1.69833 43.92429 8.03016 1.59923 -27.26224 -6.72964 3.5133 2.49211
-0.00039 0.0004 0.01238 -189.90093 -36.55887 -4.3923 47.41603 2.27739 -6.03144 -14.24902 4.73816 -0.80905 108.9126 -32.42685 34.62838 112.56612 102.52778 -21.36318 -7.59633 -34.0537 16.58974 -9.78397 37.97362 -98.63598 3.67499 -3.12341 43.94594 0.34022 -7.01756 -22.05488 -6.71875 -2.08966 -1.69772 43.80154 8.02361 1.58717 -27.2634 -6.72907 3.52643 2.49846
